<svg width="30" height="29" viewBox="0 0 30 29" fill="none" xmlns="http://www.w3.org/2000/svg">
<g clip-path="url(#clip0_1_356)">
<path d="M10.3353 4.52196C10.8531 4.52196 11.2728 4.11622 11.2728 3.61571C11.2728 3.1152 10.8531 2.70946 10.3353 2.70946C9.81756 2.70946 9.39783 3.1152 9.39783 3.61571C9.39783 4.11622 9.81756 4.52196 10.3353 4.52196Z" fill="#FED402"/>
<path d="M19.6647 26.2942C20.1824 26.2942 20.6022 25.8884 20.6022 25.3879C20.6022 24.8874 20.1824 24.4817 19.6647 24.4817C19.1469 24.4817 18.7272 24.8874 18.7272 25.3879C18.7272 25.8884 19.1469 26.2942 19.6647 26.2942Z" fill="#FED402"/>
<path d="M3.73853 10.8989C4.25629 10.8989 4.67603 10.4932 4.67603 9.99265C4.67603 9.49214 4.25629 9.0864 3.73853 9.0864C3.22076 9.0864 2.80103 9.49214 2.80103 9.99265C2.80103 10.4932 3.22076 10.8989 3.73853 10.8989Z" fill="#FED402"/>
<path d="M26.2615 19.9172C26.7792 19.9172 27.199 19.5115 27.199 19.011C27.199 18.5105 26.7792 18.1047 26.2615 18.1047C25.7437 18.1047 25.324 18.5105 25.324 19.011C25.324 19.5115 25.7437 19.9172 26.2615 19.9172Z" fill="#FED402"/>
<path d="M3.73853 19.9172C4.25629 19.9172 4.67603 19.5115 4.67603 19.011C4.67603 18.5105 4.25629 18.1047 3.73853 18.1047C3.22076 18.1047 2.80103 18.5105 2.80103 19.011C2.80103 19.5115 3.22076 19.9172 3.73853 19.9172Z" fill="#FED402"/>
<path d="M26.2615 10.8989C26.7792 10.8989 27.199 10.4932 27.199 9.99265C27.199 9.49214 26.7792 9.0864 26.2615 9.0864C25.7437 9.0864 25.324 9.49214 25.324 9.99265C25.324 10.4932 25.7437 10.8989 26.2615 10.8989Z" fill="#FED402"/>
<path d="M10.3353 26.2942C10.8531 26.2942 11.2728 25.8884 11.2728 25.3879C11.2728 24.8874 10.8531 24.4817 10.3353 24.4817C9.81756 24.4817 9.39783 24.8874 9.39783 25.3879C9.39783 25.8884 9.81756 26.2942 10.3353 26.2942Z" fill="#FED402"/>
<path d="M19.6647 4.52196C20.1824 4.52196 20.6022 4.11622 20.6022 3.61571C20.6022 3.1152 20.1824 2.70946 19.6647 2.70946C19.1469 2.70946 18.7272 3.1152 18.7272 3.61571C18.7272 4.11622 19.1469 4.52196 19.6647 4.52196Z" fill="#FED402"/>
<path d="M15 23.5626C20.1777 23.5626 24.3751 19.5052 24.3751 14.5001C24.3751 9.49495 20.1777 5.4375 15 5.4375C9.8223 5.4375 5.62494 9.49495 5.62494 14.5001C5.62494 19.5052 9.8223 23.5626 15 23.5626Z" fill="#FED402"/>
<path d="M8.6431 14.5001C8.6431 9.99163 12.0493 6.25211 16.5094 5.55435C16.0181 5.47749 15.5138 5.4375 15 5.4375C9.8223 5.4375 5.62494 9.49495 5.62494 14.5001C5.62494 19.5052 9.8223 23.5626 15 23.5626C15.5138 23.5626 16.0178 23.5226 16.5091 23.4458C12.049 22.748 8.6431 19.0085 8.6431 14.5001Z" fill="#FAC600"/>
<path d="M14.9725 0H15.0275C15.5301 0 15.9375 0.393879 15.9375 0.879686V2.74531C15.9375 3.23118 15.5301 3.625 15.0275 3.625H14.9725C14.4699 3.625 14.0625 3.23118 14.0625 2.74531V0.879686C14.0625 0.393879 14.4699 0 14.9725 0Z" fill="#FED402"/>
<path d="M14.9725 25.375H15.0275C15.5301 25.375 15.9375 25.7689 15.9375 26.2547V28.1203C15.9375 28.6062 15.53 29 15.0275 29H14.9725C14.4699 29 14.0625 28.6061 14.0625 28.1203V26.2547C14.0625 25.7688 14.4699 25.375 14.9725 25.375Z" fill="#FED402"/>
<path d="M4.37395 4.26572L4.4128 4.22817C4.76817 3.88464 5.34438 3.88464 5.69975 4.22817L7.06446 5.54738C7.41983 5.89091 7.41983 6.44791 7.06446 6.79144L7.02561 6.82899C6.67024 7.17252 6.09403 7.17252 5.73866 6.82899L4.37395 5.50983C4.01858 5.16625 4.01858 4.6093 4.37395 4.26572Z" fill="#FED402"/>
<path d="M22.9355 22.2086L22.9743 22.171C23.3297 21.8275 23.9059 21.8275 24.2613 22.171L25.626 23.4902C25.9814 23.8338 25.9814 24.3908 25.626 24.7343L25.5871 24.7718C25.2318 25.1154 24.6556 25.1154 24.3002 24.7718L22.9355 23.4526C22.5801 23.1091 22.5801 22.5521 22.9355 22.2086Z" fill="#FED402"/>
<path d="M0 14.5266V14.4734C0 13.9876 0.407461 13.5938 0.91002 13.5938H2.83998C3.3426 13.5938 3.75 13.9876 3.75 14.4734V14.5266C3.75 15.0124 3.3426 15.4062 2.83998 15.4062H0.91002C0.407461 15.4062 0 15.0124 0 14.5266Z" fill="#FED402"/>
<path d="M26.25 14.5266V14.4734C26.25 13.9876 26.6575 13.5938 27.16 13.5938H29.09C29.5926 13.5938 30 13.9876 30 14.4734V14.5266C30 15.0124 29.5925 15.4062 29.09 15.4062H27.16C26.6574 15.4062 26.25 15.0124 26.25 14.5266Z" fill="#FED402"/>
<path d="M4.4128 24.7718L4.37395 24.7343C4.01858 24.3908 4.01858 23.8338 4.37395 23.4902L5.73866 22.171C6.09403 21.8275 6.67024 21.8275 7.02561 22.171L7.06446 22.2086C7.41983 22.5521 7.41983 23.1091 7.06446 23.4526L5.69975 24.7718C5.34438 25.1154 4.76823 25.1154 4.4128 24.7718Z" fill="#FED402"/>
<path d="M22.9743 6.82899L22.9355 6.79144C22.5801 6.44791 22.5801 5.89091 22.9355 5.54738L24.3002 4.22817C24.6556 3.88464 25.2318 3.88464 25.5871 4.22817L25.626 4.26572C25.9814 4.60924 25.9814 5.16625 25.626 5.50977L24.2613 6.82899C23.9059 7.17252 23.3297 7.17252 22.9743 6.82899Z" fill="#FED402"/>
</g>
<defs>
<clipPath id="clip0_1_356">
<rect width="30" height="29" fill="white"/>
</clipPath>
</defs>
</svg>
