<svg width="24" height="24" viewBox="0 0 24 24" fill="none" xmlns="http://www.w3.org/2000/svg">
<g clip-path="url(#clip0_1_757)">
<path d="M19.4467 10.3679C19.144 10.3679 18.8418 10.398 18.5451 10.458C18.3213 9.34132 17.598 8.38873 16.5823 7.87312C15.5669 7.35751 14.3709 7.33589 13.3373 7.8143C12.4019 5.23768 9.55481 3.90733 6.97819 4.84274C4.40157 5.77815 3.07121 8.62541 4.00662 11.2018C1.74955 11.2732 -0.0333435 13.1414 0.000410417 15.3992C0.0343665 17.6573 1.87264 19.4709 4.13093 19.4746H19.4467C21.9613 19.4746 24.0001 17.436 24.0001 14.9212C24.0001 12.4065 21.9613 10.3679 19.4467 10.3679Z" fill="#A3D4F7"/>
</g>
<defs>
<clipPath id="clip0_1_757">
<rect width="24" height="24" fill="white"/>
</clipPath>
</defs>
</svg>
