<svg width="24" height="25" viewBox="0 0 24 25" fill="none" xmlns="http://www.w3.org/2000/svg">
<path fill-rule="evenodd" clip-rule="evenodd" d="M12 1.973C6.36205 1.973 1.79163 6.54343 1.79163 12.1813C1.79163 17.8193 6.36205 22.3897 12 22.3897C17.6379 22.3897 22.2083 17.8193 22.2083 12.1813C22.2083 6.54343 17.6379 1.973 12 1.973ZM0.041626 12.1813C0.041626 5.57693 5.39555 0.223003 12 0.223003C18.6043 0.223003 23.9583 5.57693 23.9583 12.1813C23.9583 18.7857 18.6043 24.1397 12 24.1397C5.39555 24.1397 0.041626 18.7857 0.041626 12.1813ZM12 4.30634C12.4832 4.30634 12.875 4.69809 12.875 5.18134V6.66571H12.9062C14.7011 6.66571 16.1562 8.12078 16.1562 9.91567C16.1562 10.3989 15.7644 10.7907 15.2812 10.7907C14.798 10.7907 14.4062 10.3989 14.4062 9.91567C14.4062 9.08728 13.7347 8.41571 12.9062 8.41571H12.875V11.322H12.9688C14.7291 11.322 16.1562 12.749 16.1562 14.5094C16.1562 16.2699 14.7291 17.697 12.9688 17.697H12.875V19.1813C12.875 19.6646 12.4832 20.0563 12 20.0563C11.5167 20.0563 11.125 19.6646 11.125 19.1813V17.697H11.0312C9.2708 17.697 7.84371 16.2699 7.84371 14.5094C7.84371 14.0262 8.23547 13.6344 8.71871 13.6344C9.20195 13.6344 9.59371 14.0262 9.59371 14.5094C9.59371 15.3033 10.2372 15.947 11.0312 15.947H11.125V13.072H11.0468C9.2778 13.072 7.84371 11.6379 7.84371 9.86889C7.84371 8.09979 9.2778 6.66571 11.0468 6.66571H11.125V5.18134C11.125 4.69809 11.5167 4.30634 12 4.30634ZM11.125 8.41571H11.0468C10.2442 8.41571 9.59371 9.06629 9.59371 9.86889C9.59371 10.6713 10.2442 11.322 11.0468 11.322H11.125V8.41571ZM12.875 13.072V15.947H12.9688C13.7627 15.947 14.4062 15.3033 14.4062 14.5094C14.4062 13.7155 13.7627 13.072 12.9688 13.072H12.875Z" fill="#7272A1"/>
</svg>