<svg width="24" height="25" viewBox="0 0 24 25" fill="none" xmlns="http://www.w3.org/2000/svg">
<g clip-path="url(#clip0_1_334)">
<path d="M12 0.970522C5.3835 0.970522 0 6.35402 0 12.9705C0 19.587 5.3835 24.9705 12 24.9705C18.6165 24.9705 24 19.587 24 12.9705C24 6.35402 18.6165 0.970522 12 0.970522ZM12 23.4705C6.21 23.4705 1.5 18.7605 1.5 12.9705C1.5 7.18052 6.21 2.47052 12 2.47052C17.79 2.47052 22.5 7.18052 22.5 12.9705C22.5 18.7605 17.79 23.4705 12 23.4705Z" fill="#7272A1"/>
<path d="M14.577 16.896C14.019 17.277 13.404 17.4705 12.75 17.4705C11.3685 17.4705 10.1715 16.5585 9.522 15.2205H12C12.414 15.2205 12.75 14.8845 12.75 14.4705C12.75 14.0565 12.414 13.7205 12 13.7205H9.063C9.0285 13.476 9 13.227 9 12.9705C9 12.714 9.0285 12.465 9.063 12.2205H12.75C13.164 12.2205 13.5 11.8845 13.5 11.4705C13.5 11.0565 13.164 10.7205 12.75 10.7205H9.522C10.1715 9.38252 11.3685 8.47052 12.75 8.47052C13.404 8.47052 14.019 8.66402 14.577 9.04502C14.919 9.27752 15.387 9.19202 15.6195 8.84852C15.8535 8.50652 15.765 8.04002 15.423 7.80602C14.622 7.26002 13.698 6.97052 12.75 6.97052C10.5525 6.97052 8.6715 8.52602 7.89 10.7205H6.75C6.336 10.7205 6 11.0565 6 11.4705C6 11.8845 6.336 12.2205 6.75 12.2205H7.566C7.539 12.4695 7.5 12.714 7.5 12.9705C7.5 13.227 7.539 13.4715 7.566 13.7205H6.75C6.336 13.7205 6 14.0565 6 14.4705C6 14.8845 6.336 15.2205 6.75 15.2205H7.89C8.6715 17.415 10.5525 18.9705 12.75 18.9705C13.698 18.9705 14.622 18.681 15.423 18.135C15.765 17.901 15.8535 17.4345 15.6195 17.0925C15.387 16.7505 14.919 16.6635 14.577 16.896Z" fill="#7272A1"/>
</g>
<defs>
<clipPath id="clip0_1_334">
<rect width="24" height="24" fill="white" transform="translate(0 0.970522)"/>
</clipPath>
</defs>
</svg>