<svg width="43" height="44" viewBox="0 0 43 44" fill="none" xmlns="http://www.w3.org/2000/svg">
<g clip-path="url(#clip0_37_153)">
<path d="M29.5961 0.561523H13.4039C6.01295 0.561523 0 6.57447 0 13.9654V30.1576C0 37.5486 6.01295 43.5615 13.4039 43.5615H29.5961C36.9871 43.5615 43 37.5486 43 30.1576V13.9654C43 6.57447 36.9871 0.561523 29.5961 0.561523ZM9.81089 18.8976C9.31916 18.4054 9.31949 17.6077 9.81164 17.116L12.5111 14.4189C13.0032 13.9272 13.8008 13.9275 14.2926 14.4197L16.9898 17.116C17.4819 17.6077 17.4823 18.4054 16.9905 18.8976C16.4987 19.3898 15.701 19.3901 15.209 18.8983L13.4007 17.0917L11.5924 18.8983C11.1003 19.3901 10.3027 19.3898 9.81089 18.8976ZM30.4865 28.3504C28.0089 30.828 24.7544 32.0667 21.5 32.0667C18.2456 32.0667 14.9911 30.828 12.5135 28.3504C12.0246 27.8554 12.0296 27.0577 12.5247 26.5688C13.0198 26.0799 13.8174 26.0849 14.3062 26.58C16.2913 28.5591 18.8956 29.5485 21.5 29.5485C24.1044 29.5485 26.7087 28.5591 28.6938 26.58C29.1826 26.085 29.9802 26.0799 30.4753 26.5688C30.9704 27.0577 30.9754 27.8553 30.4865 28.3504ZM33.186 18.9023C32.6942 19.3945 31.8965 19.3948 31.4044 18.903L29.5961 17.0964L27.7878 18.903C27.2957 19.3948 26.4981 19.3945 26.0063 18.9023C25.5145 18.4101 25.5149 17.6125 26.007 17.1207L28.7064 14.4236C29.1986 13.9319 29.9962 13.9322 30.488 14.4244L33.1852 17.1207C33.6774 17.6125 33.6777 18.4101 33.186 18.9023Z" fill="#EA6A3E"/>
</g>
<defs>
<clipPath id="clip0_37_153">
<rect width="43" height="43" fill="white" transform="translate(0 0.561523)"/>
</clipPath>
</defs>
</svg>