<svg width="26" height="27" viewBox="0 0 26 27" fill="none" xmlns="http://www.w3.org/2000/svg">
<g clip-path="url(#clip0_37_5)">
<path d="M25.2383 5.12531H22.9531V23.5081C22.9531 24.3938 23.337 25.1854 23.9439 25.7397C24.2463 26.0159 24.7079 26.0151 25.0102 25.7388C25.6165 25.1846 26 24.3933 26 23.5081V5.88702C26 5.466 25.6593 5.12531 25.2383 5.12531Z" fill="#7272A1"/>
<path d="M9.14062 14.2659H4.57031V18.8362H9.14062V14.2659Z" fill="#7272A1"/>
<path d="M16.7578 5.12531H4.57031V9.69562H16.7578V5.12531Z" fill="#7272A1"/>
<path d="M21.3281 23.5081C21.3281 -5.83745 21.3281 8.27237 21.3281 1.31671C21.3281 0.895684 20.9874 0.554993 20.5664 0.554993H0.761719C0.340691 0.554993 0 0.895684 0 1.31671V22.7464C0 24.8464 1.70864 26.555 3.80859 26.555H22.5168C21.786 25.7446 21.3281 24.6829 21.3281 23.5081ZM3.04688 13.5042C3.04688 13.0832 3.38757 12.7425 3.80859 12.7425H9.90234C10.3234 12.7425 10.6641 13.0832 10.6641 13.5042V19.598C10.6641 20.019 10.3234 20.3597 9.90234 20.3597H3.80859C3.38757 20.3597 3.04688 20.019 3.04688 19.598V13.5042ZM17.5195 23.5081H3.80859C2.8045 23.5081 2.80038 21.9847 3.80859 21.9847H17.5195C18.5236 21.9847 18.5277 23.5081 17.5195 23.5081ZM17.5195 20.3597H12.9492C11.9451 20.3597 11.941 18.8362 12.9492 18.8362H17.5195C18.5236 18.8362 18.5277 20.3597 17.5195 20.3597ZM17.5195 17.3128H12.9492C11.9451 17.3128 11.941 15.7894 12.9492 15.7894H17.5195C18.5236 15.7894 18.5277 17.3128 17.5195 17.3128ZM17.5195 14.2659H12.9492C11.9451 14.2659 11.941 12.7425 12.9492 12.7425H17.5195C18.5236 12.7425 18.5277 14.2659 17.5195 14.2659ZM18.2812 10.4573C18.2812 10.8784 17.9406 11.2191 17.5195 11.2191H3.80859C3.38757 11.2191 3.04688 10.8784 3.04688 10.4573V4.36359C3.04688 3.94256 3.38757 3.60187 3.80859 3.60187H17.5195C17.9406 3.60187 18.2812 3.94256 18.2812 4.36359V10.4573Z" fill="#7272A1"/>
</g>
<defs>
<clipPath id="clip0_37_5">
<rect width="26" height="26" fill="white" transform="translate(0 0.554993)"/>
</clipPath>
</defs>
</svg>