<svg width="116" height="44" viewBox="0 0 116 44" fill="none" xmlns="http://www.w3.org/2000/svg">
<path d="M15.2196 20.8448C13.5783 22.2816 11.4573 23 8.8568 23C6.25624 23 4.12464 22.2816 2.462 20.8448C0.820666 19.4079 0 17.4993 0 15.1189V0H5.72334V14.572C5.72334 16.4592 6.76783 17.4028 8.8568 17.4028C10.9458 17.4028 11.9902 16.4592 11.9902 14.572V0H17.7136V15.1189C17.7136 17.4993 16.8823 19.4079 15.2196 20.8448Z" fill="#7272A1"/>
<path d="M39.5643 22.5175H33.1695L26.7427 12.4489V22.5175H21.0194V0H26.7427V9.45734L32.8498 0H39.2446L32.1463 10.9371L39.5643 22.5175Z" fill="#7272A1"/>
<path d="M52.861 22.5175L48.9602 15.2476H46.9138V22.5175H41.1905V0H50.1432C52.424 0 54.3318 0.73986 55.8666 2.21958C57.4226 3.67786 58.2007 5.53287 58.2007 7.78462C58.2007 9.13566 57.8596 10.3795 57.1775 11.5161C56.4954 12.6312 55.5681 13.5212 54.3958 14.186L59 22.5175H52.861ZM46.9138 5.30769V10.358H50.0793C50.7827 10.3795 51.3582 10.1543 51.8059 9.68252C52.2535 9.21072 52.4773 8.59953 52.4773 7.84895C52.4773 7.09837 52.2535 6.48718 51.8059 6.01539C51.3582 5.54359 50.7827 5.30769 50.0793 5.30769H46.9138Z" fill="#7272A1"/>
<path d="M29.6781 22.4521C31.9327 22.4521 33.8257 23.1452 35.3572 24.5315C36.8886 25.9178 37.6543 27.6858 37.6543 29.8356C37.6543 31.9854 36.8886 33.7534 35.3572 35.1397C33.8257 36.526 31.9327 37.2192 29.6781 37.2192H26.711V43.5479H21V22.4521H29.6781ZM29.6781 32.0959C30.3162 32.0959 30.848 31.8849 31.2734 31.463C31.72 31.0411 31.9434 30.4986 31.9434 29.8356C31.9434 29.1726 31.72 28.6402 31.2734 28.2384C30.848 27.8164 30.3162 27.6055 29.6781 27.6055H26.711V32.0959H29.6781Z" fill="#FED402"/>
<path d="M46.7059 38.3343H54.3949V43.5479H40.9949V22.4521H46.7059V38.3343Z" fill="#FED402"/>
<path d="M72.176 43.5479L71.2188 40.5041H63.785L62.8278 43.5479H56.6383L64.0083 22.4521H70.9636L78.3336 43.5479H72.176ZM65.2526 35.863H69.7512L67.4859 28.6904L65.2526 35.863Z" fill="#FED402"/>
<path d="M89.9312 44C86.5706 44 83.7843 42.9552 81.5722 40.8658C79.3814 38.7562 78.286 36.1342 78.286 33C78.286 29.8658 79.3814 27.2539 81.5722 25.1644C83.7843 23.0548 86.1394 22.5 89.5 22.5C91.5206 22.5 93.8236 22.4521 95.5465 23.3562C97.2694 24.2603 98.62 25.4758 99.5984 27.0027L94.6532 29.6849C94.2278 28.9416 93.5897 28.3589 92.7389 27.937C91.9094 27.495 90.9735 27.274 89.9312 27.274C88.1446 27.274 86.6982 27.8064 85.5922 28.8712C84.5074 29.916 83.965 31.2922 83.965 33C83.965 34.7078 84.5074 36.0941 85.5922 37.1589C86.6982 38.2037 88.1446 38.726 89.9312 38.726C90.9735 38.726 91.9094 38.5151 92.7389 38.0932C93.5897 37.6511 94.2278 37.0484 94.6532 36.2849L99.5984 38.9973C98.62 40.5443 97.2694 41.7699 95.5465 42.674C93.8449 43.558 91.9732 44 89.9312 44Z" fill="#FED402"/>
<path d="M107.354 38.4849H116V43.5479H101.643V22.4521H115.84V27.4849H107.354V30.4082H115.043V35.3808H107.354V38.4849Z" fill="#FED402"/>
<line y1="22.75" x2="116" y2="22.75" stroke="#7272A1" stroke-width="0.5"/>
<g clip-path="url(#clip0_0_1)">
<path fill-rule="evenodd" clip-rule="evenodd" d="M96.9584 17.4369C97.2646 18.7405 95.7109 19.8071 94.3461 20.4036C94.5313 18.7958 94.0663 17.4764 93.3934 16.2439C93.3972 16.2478 96.4329 15.1891 96.9584 17.4369Z" fill="#F0B000"/>
<path fill-rule="evenodd" clip-rule="evenodd" d="M75.6855 7.43458C78.5587 7.6321 81.4583 8.26416 84.1085 7.48199C86.717 6.71167 88.785 5.30139 91.919 6.02826C92.9738 7.82567 94.021 9.31496 94.9358 10.9939C94.9963 11.14 95.053 11.2901 95.1097 11.4363C95.8658 13.4036 96.4216 15.4301 96.9584 17.4448C93.3934 16.5757 90.7319 18.1085 87.9495 19.5187C85.1406 20.9448 80.0369 22.1931 78.5096 20.1745C77.5871 18.1164 76.8953 16.0266 76.5172 13.8855C76.143 11.7444 75.9464 9.57963 75.6855 7.43458Z" fill="#F7CE00"/>
<path fill-rule="evenodd" clip-rule="evenodd" d="M75.6855 7.43458C78.5587 7.6321 81.4508 7.82567 84.1009 7.03955C86.7095 6.26923 89.0534 4.83129 92.1874 5.55816C93.2459 7.36348 94.1986 9.16089 94.9434 11.0136C94.0852 10.6028 92.6827 10.4882 90.8907 10.9109C88.3464 11.5114 85.1254 13.4194 80.7211 14.1304C79.6815 14.3003 78.1088 14.4544 76.6495 14.5768C76.6004 14.3477 76.555 14.1146 76.5172 13.8855C76.143 11.7444 75.9464 9.57963 75.6855 7.43458Z" fill="#0F7BD9"/>
<path fill-rule="evenodd" clip-rule="evenodd" d="M83.1369 17.3026C83.3221 18.6931 77.9689 18.9301 78.5133 20.1666C77.4359 18.2902 76.9066 16.3585 76.9369 14.4939C78.7326 14.6953 80.5283 14.8968 82.3241 15.1022C82.619 15.8489 83.0008 16.2913 83.1369 17.3026Z" fill="#F0B000"/>
<path fill-rule="evenodd" clip-rule="evenodd" d="M64.0038 0.15807C63.9849 0.0948637 64.0189 0.0237572 64.0794 0.00400537C64.1399 -0.0157464 64.208 0.0198068 64.2269 0.0830126L71.1501 22.4525C71.169 22.5157 71.135 22.5868 71.0745 22.6066C71.014 22.6263 70.946 22.5908 70.9271 22.5276L64.0038 0.15807Z" fill="black"/>
<path fill-rule="evenodd" clip-rule="evenodd" d="M65.4063 2.51243C69.3418 1.44583 73.3076 1.23646 78.1126 3.03388C78.8952 4.27824 79.9121 6.39169 81.2429 8.81721C82.3014 11.7405 83.1596 14.964 83.1407 17.3026C81.8137 14.8613 72.2642 16.6903 69.9618 18.8985C69.7842 16.153 69.5498 13.4391 68.8239 10.8042C68.7785 10.6383 68.7332 10.4764 68.6803 10.3104C68.2342 7.79802 67.1151 5.36064 65.4063 2.51243Z" fill="#F7CE00"/>
<path fill-rule="evenodd" clip-rule="evenodd" d="M64.8506 2.2122C68.7861 1.1456 73.5382 0.65576 78.3432 2.45317C79.1296 3.70149 80.2788 6.15466 81.258 8.86066C74.5211 7.56099 68.6916 10.346 68.6916 10.346C67.9053 7.73086 66.567 5.07622 64.8506 2.2122Z" fill="#0F7BD9"/>
</g>
<defs>
<clipPath id="clip0_0_1">
<rect width="33" height="23" fill="white" transform="translate(64)"/>
</clipPath>
</defs>
</svg>