<svg width="213" height="29" viewBox="0 0 213 29" fill="none" xmlns="http://www.w3.org/2000/svg">
<path d="M18.4778 16.7075V0.973755C18.4778 0.957953 18.4649 0.945122 18.449 0.945122H5.94141C5.92554 0.945122 5.91266 0.957948 5.91266 0.973755V16.7075C5.91266 20.1559 8.73049 22.9614 12.1941 22.9614C15.6588 22.9614 18.4778 20.1559 18.4778 16.7075ZM38.9981 14.6981L47.5121 0.9891C47.5174 0.980396 47.5179 0.969176 47.5128 0.960243C47.5078 0.95108 47.4981 0.945584 47.4878 0.945584H41.0097C40.9998 0.945584 40.9906 0.950615 40.9853 0.959319L35.703 9.46519C35.7027 9.46565 35.7016 9.46542 35.7013 9.46611L32.4623 14.6834L29.5018 19.4488V0.974209C29.5018 0.958407 29.489 0.945584 29.4731 0.945584H23.9612C23.9453 0.945584 23.9324 0.958403 23.9324 0.974209V16.707C23.9324 23.1499 18.6678 28.3915 12.1966 28.3915C12.1807 28.3915 12.1678 28.4043 12.1678 28.4201C12.1678 28.4359 12.1807 28.4487 12.1966 28.4487H30.4416C30.4515 28.4487 30.4607 28.4437 30.466 28.435L35.726 19.9674L40.9853 28.435C40.9906 28.4435 40.9998 28.4487 41.0097 28.4487H47.4878C47.4981 28.4487 47.5078 28.4432 47.5128 28.4341C47.5179 28.4252 47.5177 28.4139 47.5121 28.4052L38.9981 14.6981Z" fill="#7272A1"/>
<path d="M51.0365 28.4493H56.5484C56.5642 28.4493 56.5771 28.4365 56.5771 28.4207V22.437H63.8015C63.9779 22.437 64.1549 22.4322 64.3285 22.4237L68.0626 28.4358C68.0677 28.4443 68.0771 28.4493 68.087 28.4493H74.5651C74.5755 28.4493 74.5851 28.4436 74.5902 28.4347C74.595 28.4255 74.595 28.4145 74.5895 28.4058L69.7687 20.6432C72.7901 18.6468 74.5936 15.3033 74.5936 11.6916C74.5936 5.76653 69.7521 0.946142 63.801 0.946142H51.036C51.0201 0.946142 51.0072 0.958969 51.0072 0.974775V28.4207C51.0077 28.4365 51.0206 28.4493 51.0365 28.4493ZM66.8123 15.94C65.9331 16.5628 64.8919 16.8919 63.8015 16.8919H56.5771V6.49121H63.8015C66.6817 6.49121 69.0247 8.82421 69.0247 11.6916C69.0247 13.378 68.1979 14.9662 66.8123 15.94Z" fill="#7272A1"/>
<path d="M113.654 11.6916C113.654 5.76653 108.812 0.94615 102.861 0.94615H90.0959C90.08 0.94615 90.0671 0.958969 90.0671 0.974776V28.4207C90.0671 28.4365 90.08 28.4493 90.0959 28.4493H95.6078C95.6237 28.4493 95.6366 28.4365 95.6366 28.4207V22.437H102.861C103.043 22.437 103.226 22.4324 103.405 22.4233C105.336 22.3275 107.203 21.7176 108.805 20.6597C111.841 18.6652 113.654 15.3127 113.654 11.6916ZM95.6366 6.4912H102.861C105.741 6.4912 108.084 8.82421 108.084 11.6916C108.084 13.3778 107.257 14.9659 105.872 15.94C104.993 16.5628 103.952 16.8919 102.861 16.8919H95.6366V6.4912Z" fill="#7272A1"/>
<path d="M116.781 28.4486H140.31C140.326 28.4486 140.339 28.4358 140.339 28.42V22.9308C140.339 22.915 140.326 22.9022 140.31 22.9022H122.323V0.974083C122.323 0.958281 122.31 0.94545 122.294 0.94545H116.781C116.765 0.94545 116.752 0.958276 116.752 0.974083V28.42C116.752 28.4358 116.765 28.4486 116.781 28.4486Z" fill="#7272A1"/>
<path d="M146.848 19.2024H152.824C152.834 19.2024 152.842 19.1981 152.848 19.1907C152.853 19.1834 152.855 19.1738 152.852 19.1651L149.864 9.91871C149.856 9.89489 149.816 9.89489 149.809 9.91871L146.821 19.1651C146.818 19.1738 146.819 19.1834 146.825 19.1907C146.83 19.1981 146.839 19.2024 146.848 19.2024ZM154.598 24.6352H145.074C145.062 24.6352 145.051 24.6433 145.047 24.6552L143.832 28.4114C143.83 28.4201 143.831 28.4298 143.837 28.4371C143.842 28.4444 143.851 28.4488 143.86 28.4488H155.813C155.822 28.4488 155.831 28.4444 155.836 28.4371C155.842 28.4298 155.843 28.4201 155.84 28.4114L154.626 24.6552C154.622 24.6433 154.611 24.6352 154.598 24.6352ZM181.254 20.5001C181.243 20.4889 181.225 20.4889 181.214 20.5001C178 23.6994 172.772 23.6994 169.559 20.5001C166.345 17.3009 166.345 12.0955 169.559 8.89628C172.772 5.69704 178 5.69704 181.214 8.89628C181.224 8.90704 181.243 8.90704 181.254 8.89628L185.151 5.01404C185.163 5.00282 185.163 4.98472 185.151 4.97351C182.542 2.37596 179.074 0.945606 175.386 0.945606H152.731C152.722 0.945606 152.713 0.949959 152.708 0.957286C152.703 0.964613 152.701 0.974236 152.704 0.98294L161.575 28.4288C161.575 28.4304 161.577 28.43 161.578 28.4314C161.583 28.4403 161.59 28.4469 161.601 28.4476C161.601 28.4476 161.601 28.4488 161.602 28.4488C161.603 28.4488 161.605 28.4488 161.607 28.4485H175.368C175.374 28.4485 175.38 28.449 175.386 28.449C179.076 28.449 182.543 27.0184 185.151 24.4209C185.163 24.4096 185.163 24.3916 185.151 24.3803L181.254 20.5001Z" fill="#7272A1"/>
<path d="M188.284 28.4486H211.814C211.83 28.4486 211.843 28.4358 211.843 28.42V22.9308C211.843 22.915 211.83 22.9022 211.814 22.9022H193.827V17.4703H206.303C206.319 17.4703 206.332 17.4574 206.332 17.4416V11.9524C206.332 11.9366 206.319 11.9238 206.303 11.9238H193.827V6.49189H211.814C211.83 6.49189 211.843 6.47906 211.843 6.46326V0.974083C211.843 0.958281 211.83 0.94545 211.814 0.94545H188.284C188.268 0.94545 188.256 0.958276 188.256 0.974083V28.42C188.256 28.4358 188.268 28.4486 188.284 28.4486Z" fill="#7272A1"/>
</svg>
