<svg width="23" height="23" viewBox="0 0 23 23" fill="none" xmlns="http://www.w3.org/2000/svg">
<g clip-path="url(#clip0_65_287)">
<path d="M13.6563 0H2.63542C1.17875 0 0 1.17875 0 2.63542V17.4896C0 18.9462 1.17875 20.125 2.63542 20.125H10.4363C9.59292 18.975 9.10417 17.5758 9.10417 16.0521C9.10417 12.2188 12.2188 9.10417 16.0521 9.10417C16.1288 9.10417 16.215 9.10417 16.2917 9.11375V2.63542C16.2917 1.17875 15.1129 0 13.6563 0ZM3.83333 3.83333H7.66667C8.19375 3.83333 8.625 4.26458 8.625 4.79167C8.625 5.31875 8.19375 5.75 7.66667 5.75H3.83333C3.30625 5.75 2.875 5.31875 2.875 4.79167C2.875 4.26458 3.30625 3.83333 3.83333 3.83333ZM8.625 13.4167H3.83333C3.30625 13.4167 2.875 12.9854 2.875 12.4583C2.875 11.9312 3.30625 11.5 3.83333 11.5H8.625C9.15208 11.5 9.58333 11.9312 9.58333 12.4583C9.58333 12.9854 9.15208 13.4167 8.625 13.4167ZM12.4583 9.58333H3.83333C3.30625 9.58333 2.875 9.15208 2.875 8.625C2.875 8.09792 3.30625 7.66667 3.83333 7.66667H12.4583C12.9854 7.66667 13.4167 8.09792 13.4167 8.625C13.4167 9.15208 12.9854 9.58333 12.4583 9.58333Z" fill="white"/>
<path d="M16.052 21.0834C13.2776 21.0834 11.0208 18.8265 11.0208 16.0521C11.0208 13.2777 13.2776 11.0209 16.052 11.0209C18.8264 11.0209 21.0833 13.2777 21.0833 16.0521C21.0833 18.8265 18.8264 21.0834 16.052 21.0834ZM16.052 12.9375C14.3347 12.9375 12.9374 14.3348 12.9374 16.0521C12.9374 17.7695 14.3347 19.1667 16.052 19.1667C17.7693 19.1667 19.1666 17.7695 19.1666 16.0521C19.1666 14.3348 17.7693 12.9375 16.052 12.9375Z" fill="white"/>
<path d="M22.0417 23C21.7963 23 21.551 22.9061 21.3641 22.7192L18.2495 19.6046C17.8748 19.2299 17.8748 18.6242 18.2495 18.2495C18.6242 17.8748 19.2299 17.8748 19.6046 18.2495L22.7192 21.3641C23.0939 21.7388 23.0939 22.3445 22.7192 22.7192C22.5323 22.9061 22.287 23 22.0417 23Z" fill="white"/>
</g>
<defs>
<clipPath id="clip0_65_287">
<rect width="23" height="23" fill="white"/>
</clipPath>
</defs>
</svg>