<svg width="22" height="22" viewBox="0 0 22 22" fill="none" xmlns="http://www.w3.org/2000/svg">
<g clip-path="url(#clip0_65_274)">
<path d="M21.3555 3.86719H19.4219V19.4219C19.4219 20.1713 19.7467 20.8411 20.2602 21.3101C20.5161 21.5438 20.9067 21.5432 21.1625 21.3094C21.6755 20.8404 22 20.1709 22 19.4219V4.51172C22 4.15546 21.7117 3.86719 21.3555 3.86719Z" fill="white"/>
<path d="M7.73438 11.6016H3.86719V15.4688H7.73438V11.6016Z" fill="white"/>
<path d="M14.1797 3.86719H3.86719V7.73438H14.1797V3.86719Z" fill="white"/>
<path d="M18.0469 19.4219C18.0469 -5.40899 18.0469 6.53009 18.0469 0.644531C18.0469 0.288277 17.7586 0 17.4023 0H0.644531C0.288277 0 0 0.288277 0 0.644531V18.7773C0 20.5542 1.44577 22 3.22266 22H19.0527C18.4343 21.3143 18.0469 20.4159 18.0469 19.4219ZM2.57812 10.957C2.57812 10.6008 2.8664 10.3125 3.22266 10.3125H8.37891C8.73516 10.3125 9.02344 10.6008 9.02344 10.957V16.1133C9.02344 16.4695 8.73516 16.7578 8.37891 16.7578H3.22266C2.8664 16.7578 2.57812 16.4695 2.57812 16.1133V10.957ZM14.8242 19.4219H3.22266C2.37304 19.4219 2.36955 18.1328 3.22266 18.1328H14.8242C15.6738 18.1328 15.6773 19.4219 14.8242 19.4219ZM14.8242 16.7578H10.957C10.1074 16.7578 10.1039 15.4688 10.957 15.4688H14.8242C15.6738 15.4688 15.6773 16.7578 14.8242 16.7578ZM14.8242 14.1797H10.957C10.1074 14.1797 10.1039 12.8906 10.957 12.8906H14.8242C15.6738 12.8906 15.6773 14.1797 14.8242 14.1797ZM14.8242 11.6016H10.957C10.1074 11.6016 10.1039 10.3125 10.957 10.3125H14.8242C15.6738 10.3125 15.6773 11.6016 14.8242 11.6016ZM15.4688 8.37891C15.4688 8.73516 15.1805 9.02344 14.8242 9.02344H3.22266C2.8664 9.02344 2.57812 8.73516 2.57812 8.37891V3.22266C2.57812 2.8664 2.8664 2.57812 3.22266 2.57812H14.8242C15.1805 2.57812 15.4688 2.8664 15.4688 3.22266V8.37891Z" fill="white"/>
</g>
<defs>
<clipPath id="clip0_65_274">
<rect width="22" height="22" fill="white"/>
</clipPath>
</defs>
</svg>