<svg width="24" height="24" viewBox="0 0 24 24" fill="none" xmlns="http://www.w3.org/2000/svg">
<g clip-path="url(#clip0_65_253)">
<path d="M23.6994 11.7189C24.1344 11.2405 24.0924 10.5071 23.6056 10.0813L12.8796 0.696113C12.3928 0.270365 11.6122 0.279284 11.1356 0.716219L0.373269 10.5817C-0.103331 11.0187 -0.126723 11.7511 0.321478 12.217L0.591306 12.498C1.03896 12.9639 1.76254 13.0194 2.20644 12.6217L3.01076 11.9014V22.4467C3.01076 23.0937 3.53501 23.6174 4.18153 23.6174H8.37674C9.02326 23.6174 9.54751 23.0937 9.54751 22.4467V15.0692H14.8985V22.4467C14.8892 23.0932 15.3518 23.617 15.9983 23.617H20.4442C21.0907 23.617 21.615 23.0932 21.615 22.4462V12.0499C21.615 12.0499 21.8372 12.2445 22.1112 12.4854C22.3848 12.7258 22.9594 12.533 23.3945 12.0541L23.6994 11.7189Z" fill="white"/>
</g>
<defs>
<clipPath id="clip0_65_253">
<rect width="24" height="24" fill="white"/>
</clipPath>
</defs>
</svg>