<svg width="34" height="22" xmlns="http://www.w3.org/2000/svg">

 <g>
  <title>background</title>
  <rect fill="none" id="canvas_background" height="24" width="36" y="-1" x="-1"/>
 </g>
 <g>
  <title>Layer 1</title>
  <path id="svg_1" fill="white" d="m9.03381,0.90625c-1.16806,0 -2.12602,0.95695 -2.12602,2.125l0,12.21975c0,1.1681 0.95796,2.1261 2.12602,2.1261l22.30939,0c1.1681,0 2.126,-0.958 2.126,-2.1261l0,-12.21975c0,-1.16805 -0.9579,-2.125 -2.126,-2.125l-22.30939,0zm1.59169,3.18745l0.5769,0l0.5333,0l0.5292,0l1.5491,0c0.1404,0.0006 0.2748,0.0567 0.374,0.156c0.0991,0.0994 0.1549,0.2339 0.1552,0.3743l0,3.1875c0.0005,0.1408 -0.0549,0.2762 -0.1541,0.3762c-0.0993,0.1 -0.2342,0.1565 -0.3751,0.1571l-3.1885,0c-0.1409,-0.0006 -0.2758,-0.0571 -0.375,-0.1571c-0.0993,-0.1 -0.1547,-0.2354 -0.1542,-0.3762l0,-3.1875c0.0003,-0.1404 0.0561,-0.2749 0.1553,-0.3743c0.0991,-0.0993 0.2336,-0.1554 0.3739,-0.156zm-7.96874,0.5303c-1.16805,0 -2.12502,0.9569 -2.12502,2.125l0,1.5958l1.0625,0l4.25103,0l0,-2.6583l0,-1.0625l-3.18851,0zm-2.12502,5.8468l0,0.5292l0,7.9688c0,1.168 0.95697,2.126 2.12502,2.126l22.31454,0c1.1681,0 2.1209,-0.958 2.1209,-2.126l0,-0.5334l-1.0584,0l-16.99999,0c-1.73829,0 -3.18854,-1.4461 -3.18854,-3.1844l0,-3.7218l0,-1.0584l-5.31353,0zm10.09376,1.0584l2.6552,0c0.0701,-0.0003 0.1396,0.0133 0.2044,0.04c0.0649,0.0267 0.1237,0.066 0.1733,0.1156c0.0496,0.0495 0.0889,0.1084 0.1156,0.1733c0.0267,0.0648 0.0403,0.1343 0.04,0.2044c-0.0001,0.0698 -0.014,0.139 -0.0409,0.2035c-0.0269,0.0644 -0.0662,0.1229 -0.1158,0.1722c-0.0495,0.0492 -0.1083,0.0883 -0.1729,0.1148c-0.0646,0.0265 -0.1338,0.04 -0.2037,0.0397l-2.6552,0c-0.1404,-0.0005 -0.2748,-0.0566 -0.3739,-0.156c-0.0992,-0.0993 -0.155,-0.2339 -0.1553,-0.3742c-0.0002,-0.0698 0.0132,-0.1389 0.0397,-0.2035c0.0264,-0.0645 0.0653,-0.1232 0.1145,-0.1728c0.0491,-0.0495 0.1075,-0.0889 0.1719,-0.1158c0.0643,-0.027 0.1333,-0.041 0.2031,-0.0412zm5.8437,0l2.6542,0c0.0701,-0.0003 0.1396,0.0133 0.2044,0.04c0.0649,0.0267 0.1238,0.066 0.1733,0.1156c0.0496,0.0495 0.0889,0.1084 0.1156,0.1733c0.0267,0.0648 0.0403,0.1343 0.04,0.2044c-0.0001,0.0698 -0.014,0.139 -0.0409,0.2035c-0.0269,0.0644 -0.0662,0.1229 -0.1158,0.1722c-0.0495,0.0492 -0.1083,0.0883 -0.1729,0.1148c-0.0646,0.0265 -0.1338,0.04 -0.2037,0.0397l-2.6542,0c-0.1405,-0.0003 -0.2752,-0.0562 -0.3746,-0.1556c-0.0993,-0.0994 -0.1553,-0.2341 -0.1556,-0.3746c-0.0002,-0.0699 0.0133,-0.1391 0.0398,-0.2037c0.0265,-0.0646 0.0655,-0.1234 0.1147,-0.1729c0.0493,-0.0496 0.1078,-0.0889 0.1723,-0.1158c0.0644,-0.0269 0.1336,-0.0408 0.2034,-0.0409zm5.3136,0l2.6552,0c0.0701,-0.0003 0.1396,0.0133 0.2044,0.04c0.0648,0.0267 0.1237,0.066 0.1733,0.1156c0.0496,0.0495 0.0889,0.1084 0.1156,0.1733c0.0267,0.0648 0.0403,0.1343 0.04,0.2044c-0.0001,0.0698 -0.014,0.139 -0.0409,0.2035c-0.0269,0.0644 -0.0662,0.123 -0.1158,0.1722c-0.0495,0.0493 -0.1083,0.0883 -0.1729,0.1148c-0.0646,0.0265 -0.1339,0.04 -0.2037,0.0397l-2.6552,0c-0.0699,0.0003 -0.1391,-0.0132 -0.2037,-0.0397c-0.0647,-0.0265 -0.1234,-0.0656 -0.1729,-0.1148c-0.0496,-0.0493 -0.0889,-0.1078 -0.1158,-0.1722c-0.0269,-0.0645 -0.0408,-0.1337 -0.0409,-0.2035c-0.0003,-0.0701 0.0133,-0.1396 0.04,-0.2044c0.0267,-0.0649 0.066,-0.1238 0.1156,-0.1733c0.0495,-0.0496 0.1084,-0.0889 0.1733,-0.1156c0.0648,-0.0267 0.1343,-0.0403 0.2044,-0.04zm5.3094,0l2.6593,0c0.0698,0.0002 0.1388,0.0142 0.2032,0.0412c0.0643,0.0269 0.1227,0.0663 0.1719,0.1158c0.0491,0.0496 0.088,0.1083 0.1144,0.1728c0.0265,0.0646 0.04,0.1337 0.0397,0.2035c-0.0003,0.1403 -0.0561,0.2749 -0.1552,0.3742c-0.0992,0.0994 -0.2336,0.1555 -0.374,0.156l-2.6593,0c-0.1404,-0.0005 -0.2748,-0.0566 -0.374,-0.156c-0.0991,-0.0993 -0.1549,-0.2339 -0.1552,-0.3742c-0.0003,-0.0698 0.0132,-0.1389 0.0396,-0.2035c0.0265,-0.0645 0.0654,-0.1232 0.1145,-0.1728c0.0492,-0.0495 0.1076,-0.0889 0.1719,-0.1158c0.0644,-0.027 0.1334,-0.041 0.2032,-0.0412z"/>
 </g>
</svg>