<svg width="34" height="34" viewBox="0 0 34 34" fill="none" xmlns="http://www.w3.org/2000/svg">
<path d="M9.03381 6.90625C7.86575 6.90625 6.90779 7.8632 6.90779 9.03125V21.251C6.90779 22.4191 7.86575 23.3771 9.03381 23.3771H31.3432C32.5113 23.3771 33.4692 22.4191 33.4692 21.251V9.03125C33.4692 7.8632 32.5113 6.90625 31.3432 6.90625H9.03381ZM10.6255 10.0937H11.2024H11.7357H12.2649H13.814C13.9544 10.0943 14.0888 10.1504 14.188 10.2497C14.2871 10.3491 14.3429 10.4836 14.3432 10.624V13.8115C14.3437 13.9523 14.2883 14.0877 14.1891 14.1877C14.0898 14.2877 13.9549 14.3442 13.814 14.3448H10.6255C10.4846 14.3442 10.3497 14.2877 10.2505 14.1877C10.1512 14.0877 10.0958 13.9523 10.0963 13.8115V10.624C10.0966 10.4836 10.1524 10.3491 10.2516 10.2497C10.3507 10.1504 10.4852 10.0943 10.6255 10.0937ZM2.65676 10.624C1.48871 10.624 0.531738 11.5809 0.531738 12.749V14.3448H1.59424H5.84527V11.6865V10.624H2.65676ZM0.531738 16.4708V17V24.9688C0.531738 26.1368 1.48871 27.0948 2.65676 27.0948H24.9713C26.1394 27.0948 27.0922 26.1368 27.0922 24.9688V24.4354H26.0338H9.03381C7.29552 24.4354 5.84527 22.9893 5.84527 21.251V17.5292V16.4708H0.531738ZM10.6255 17.5292H13.2807C13.3508 17.5289 13.4203 17.5425 13.4851 17.5692C13.55 17.5959 13.6088 17.6352 13.6584 17.6848C13.708 17.7343 13.7473 17.7932 13.774 17.8581C13.8007 17.9229 13.8143 17.9924 13.814 18.0625C13.8139 18.1323 13.8 18.2015 13.7731 18.266C13.7462 18.3304 13.7069 18.3889 13.6573 18.4382C13.6078 18.4874 13.549 18.5265 13.4844 18.553C13.4198 18.5795 13.3506 18.593 13.2807 18.5927H10.6255C10.4851 18.5922 10.3507 18.5361 10.2516 18.4367C10.1524 18.3374 10.0966 18.2028 10.0963 18.0625C10.0961 17.9927 10.1095 17.9236 10.136 17.859C10.1624 17.7945 10.2013 17.7358 10.2505 17.6862C10.2996 17.6367 10.358 17.5973 10.4224 17.5704C10.4867 17.5434 10.5557 17.5294 10.6255 17.5292ZM16.4692 17.5292H19.1234C19.1935 17.5289 19.263 17.5425 19.3278 17.5692C19.3927 17.5959 19.4516 17.6352 19.5011 17.6848C19.5507 17.7343 19.59 17.7932 19.6167 17.8581C19.6434 17.9229 19.657 17.9924 19.6567 18.0625C19.6566 18.1323 19.6427 18.2015 19.6158 18.266C19.5889 18.3304 19.5496 18.3889 19.5 18.4382C19.4505 18.4874 19.3917 18.5265 19.3271 18.553C19.2625 18.5795 19.1933 18.593 19.1234 18.5927H16.4692C16.3287 18.5924 16.194 18.5365 16.0946 18.4371C15.9953 18.3377 15.9393 18.203 15.939 18.0625C15.9388 17.9926 15.9523 17.9234 15.9788 17.8588C16.0053 17.7942 16.0443 17.7354 16.0935 17.6859C16.1428 17.6363 16.2013 17.597 16.2658 17.5701C16.3302 17.5432 16.3994 17.5293 16.4692 17.5292ZM21.7828 17.5292H24.438C24.5081 17.5289 24.5776 17.5425 24.6424 17.5692C24.7072 17.5959 24.7661 17.6352 24.8157 17.6848C24.8653 17.7343 24.9046 17.7932 24.9313 17.8581C24.958 17.9229 24.9716 17.9924 24.9713 18.0625C24.9712 18.1323 24.9573 18.2015 24.9304 18.266C24.9035 18.3304 24.8642 18.389 24.8146 18.4382C24.7651 18.4875 24.7063 18.5265 24.6417 18.553C24.5771 18.5795 24.5078 18.593 24.438 18.5927H21.7828C21.7129 18.593 21.6437 18.5795 21.5791 18.553C21.5144 18.5265 21.4557 18.4874 21.4062 18.4382C21.3566 18.3889 21.3173 18.3304 21.2904 18.266C21.2635 18.2015 21.2496 18.1323 21.2495 18.0625C21.2492 17.9924 21.2628 17.9229 21.2895 17.8581C21.3162 17.7932 21.3555 17.7343 21.4051 17.6848C21.4546 17.6352 21.5135 17.5959 21.5784 17.5692C21.6432 17.5425 21.7127 17.5289 21.7828 17.5292ZM27.0922 17.5292H29.7515C29.8213 17.5294 29.8903 17.5434 29.9547 17.5704C30.019 17.5973 30.0774 17.6367 30.1266 17.6862C30.1757 17.7358 30.2146 17.7945 30.241 17.859C30.2675 17.9236 30.281 17.9927 30.2807 18.0625C30.2804 18.2028 30.2246 18.3374 30.1255 18.4367C30.0263 18.5361 29.8919 18.5922 29.7515 18.5927H27.0922C26.9518 18.5922 26.8174 18.5361 26.7182 18.4367C26.6191 18.3374 26.5633 18.2028 26.563 18.0625C26.5627 17.9927 26.5762 17.9236 26.6026 17.859C26.6291 17.7945 26.668 17.7358 26.7171 17.6862C26.7663 17.6367 26.8247 17.5973 26.889 17.5704C26.9534 17.5434 27.0224 17.5294 27.0922 17.5292Z" fill="white"/>
</svg>