<svg width="80" height="42" viewBox="0 0 80 42" fill="none" xmlns="http://www.w3.org/2000/svg">
<g clip-path="url(#clip0_1_699)">
<path d="M30.3695 42.0001C31.5306 41.9102 32.0666 40.7261 31.5631 39.346L26.1632 24.6137C25.6598 23.2417 24.3118 22.1964 23.1425 22.2863C21.9813 22.3761 21.4454 23.5602 21.9488 24.9404L27.3488 39.6726C27.8603 41.0446 29.2083 42.0899 30.3695 42.0001Z" fill="#4C4C74"/>
<path d="M19.2123 27.5863L27.5437 26.2796L28.0471 11.6699L16.9712 13.4011C13.9992 13.8666 11.9367 16.7004 12.4076 19.6893L12.9111 22.9559C13.3821 25.9693 16.216 28.0517 19.2123 27.5863Z" fill="#7272A1"/>
<path d="M25.3431 12.1108L27.5355 26.2796C37.4746 24.728 50.8892 28.9827 50.8892 28.9827L50.6131 27.2596L46.3419 0.498169C46.3419 0.498169 38.7495 9.46492 25.4649 12.0782C25.4243 12.0945 25.3837 12.1027 25.3431 12.1108Z" fill="#8C8CC6"/>
<path d="M23.7353 19.6076C23.8977 20.6611 24.1413 21.6492 24.4417 22.5312C25.2456 24.8995 26.4474 26.4511 27.5355 26.2796C28.3719 26.1489 28.9728 25.0301 29.2245 23.3724C29.4194 22.0821 29.4032 20.4733 29.1433 18.7665C28.5505 14.9609 26.9265 12.0292 25.4649 12.0863C25.4243 12.0863 25.3837 12.0945 25.3431 12.0945C23.849 12.3313 23.1263 15.6959 23.7353 19.6076Z" fill="#C1B2FF"/>
<g opacity="0.5">
<path d="M24.4417 22.5313C25.2456 24.8995 26.4474 26.4511 27.5355 26.2797C37.4746 24.728 50.8892 28.9827 50.8892 28.9827L50.6131 27.2596L45.7166 18.4317C45.7166 18.4317 43.6297 22.4088 38.0187 23.4867C35.4365 23.9849 32.0828 23.7562 29.2164 23.3724C28.445 23.2662 27.7061 23.1519 27.024 23.0294C26.0089 22.8579 25.1157 22.6701 24.4417 22.5313Z" fill="#7272A1"/>
</g>
<path d="M51.732 29.0993C54.1382 28.7221 55.0799 21.9062 53.8354 13.8756C52.5908 5.84491 49.6314 -0.359484 47.2252 0.0176676C44.819 0.39482 43.8773 7.2107 45.1218 15.2414C46.3663 23.272 49.3258 29.4764 51.732 29.0993Z" fill="#494979"/>
<path d="M46.1307 12.756C46.1307 12.756 50.1421 12.1109 51.0272 13.5972C52.1072 15.4264 48.8997 17.1087 46.8453 17.3864C46.8534 17.3864 45.6516 15.3611 46.1307 12.756Z" fill="white"/>
<path d="M14.6894 35.9242L16.6139 35.5077C16.825 35.4587 16.9955 35.671 16.89 35.8588L15.9968 37.5656C15.9562 37.6391 15.9562 37.729 15.9968 37.8025L16.9225 39.4194C17.028 39.5991 16.8656 39.8277 16.6464 39.8032L14.7219 39.5827C14.6326 39.5746 14.5514 39.6072 14.4864 39.6644L13.1385 41.0772C12.9842 41.2324 12.7243 41.167 12.6919 40.9629L12.3995 39.1173C12.3833 39.0356 12.3346 38.9703 12.2534 38.9376L10.4994 38.1944C10.3045 38.1128 10.3045 37.8433 10.4994 37.7453L12.2452 36.8225C12.3264 36.7816 12.3752 36.7082 12.3914 36.6265L12.6594 34.7564C12.6919 34.544 12.9517 34.4542 13.106 34.593L14.4783 35.867C14.5189 35.916 14.6001 35.9405 14.6894 35.9242Z" fill="#FFB041"/>
<path d="M13.4308 35.3607C13.6094 35.4179 14.186 36.014 14.462 36.0875C14.8437 36.1855 16.078 35.7772 16.1916 35.9079C16.3865 36.1447 14.868 36.847 14.2184 36.7082C13.6175 36.5775 12.903 35.1892 13.4308 35.3607Z" fill="#FFC06E"/>
<path d="M77.4828 10.6245C76.687 10.7307 75.875 10.9757 75.6151 10.8369C74.9168 10.4694 75.3065 6.38616 74.4377 6.46782C73.9018 6.51682 73.8206 6.63932 73.2359 9.59557C72.9598 10.9839 71.2708 11.3595 71.0759 12.2497C71.0759 12.2497 71.417 16.2349 72.0016 17.076C72.4239 17.6885 77.4828 17.2312 78.3922 16.7575C79.2854 16.292 78.8632 15.6061 78.7982 15.5081C79.6184 15.2631 79.4641 14.0708 78.9444 13.8911C78.9444 13.8911 79.8457 12.5845 78.7576 11.9883C79.3017 11.6208 79.1636 10.404 77.4828 10.6245Z" fill="#FFBF61"/>
<path d="M71.7255 11.3024L69.3138 11.4739C68.9566 11.4984 68.6886 11.8169 68.7292 12.1762L69.2245 17.1414C69.2651 17.5089 69.5981 17.7702 69.9553 17.7049L72.3183 17.3292C72.4239 17.3129 72.497 17.2149 72.4888 17.1087L71.9285 11.4739C71.9123 11.3759 71.823 11.3024 71.7255 11.3024Z" fill="#7272A1"/>
<path d="M0.389781 12.4457C0.958193 10.0284 3.80838 8.56661 6.02518 9.91407C6.28503 10.0692 6.62608 10.3469 6.56112 10.6899C6.49615 11.0165 6.13075 11.2125 5.81406 11.139C5.04264 10.9594 5.13197 9.93041 5.46489 9.43225C6.11451 8.45228 7.39749 8.13379 8.50184 8.26445C9.90663 8.42778 11.1247 9.30159 12.1965 10.1672C12.3995 10.3306 12.6837 10.0447 12.4807 9.88141C11.2302 8.86877 9.80919 7.8888 8.14455 7.8398C6.78848 7.79897 4.9858 8.50945 4.80716 10.0611C4.7422 10.6572 5.05888 11.3269 5.65166 11.5147C6.18759 11.6862 6.84532 11.3514 6.95088 10.7797C7.08893 10.0774 6.36623 9.61192 5.82218 9.37509C5.09948 9.06476 4.30371 8.9586 3.52417 9.07293C1.80269 9.30159 0.406021 10.6327 0.00813219 12.3313C-0.0568292 12.5845 0.332939 12.6907 0.389781 12.4457Z" fill="#DFDAFF"/>
<path d="M62.1356 21.0368C62.7933 23.9195 63.849 27.6679 67.1701 28.4029C67.9659 28.5826 68.7941 28.5172 69.5899 28.3457C70.3613 28.1742 71.1977 27.9293 71.823 27.4311C72.2858 27.0636 72.6025 26.5491 72.6025 25.9366C72.6025 25.3813 72.3264 24.8505 71.7905 24.6463C70.4913 24.1482 69.0215 25.6671 68.315 26.5736C67.4787 27.6598 66.9346 28.9664 66.756 30.3302C66.3662 33.2129 67.6979 36.063 69.9472 37.8351C72.7649 40.0564 76.687 40.2442 79.8782 38.758C80.1137 38.6518 79.9107 38.3006 79.6752 38.4068C77.0767 39.6154 73.918 39.6808 71.3682 38.2925C69.192 37.1083 67.5436 34.9279 67.162 32.4535C66.7722 29.979 67.7548 27.3086 69.6955 25.7243C70.2071 25.3078 71.0272 24.7198 71.7093 25.0547C72.3183 25.3568 72.2939 26.2061 71.961 26.7043C71.5631 27.2923 70.8323 27.5618 70.1827 27.7659C69.4356 27.9946 68.648 28.1497 67.8603 28.1007C64.2956 27.8639 63.1669 23.8052 62.5091 20.9306C62.4685 20.6775 62.0788 20.7836 62.1356 21.0368Z" fill="#DFDAFF"/>
</g>
<defs>
<clipPath id="clip0_1_699">
<rect width="80" height="42" fill="white"/>
</clipPath>
</defs>
</svg>