<svg width="26" height="28" viewBox="0 0 26 28" fill="none" xmlns="http://www.w3.org/2000/svg">
<path d="M23.7047 9.01212C23.7049 10.6778 23.0909 12.2754 21.9977 13.4537C20.9046 14.632 19.4217 15.2947 17.875 15.2959H8.12498C6.57829 15.2947 5.09538 14.632 4.00221 13.4537C2.90903 12.2754 2.29507 10.6778 2.29529 9.01212V8.47268C2.29523 7.85338 2.40846 7.24013 2.62851 6.66795C2.84855 6.09578 3.1711 5.57589 3.57774 5.13797C3.98437 4.70006 4.46713 4.35269 4.99843 4.11572C5.52974 3.87875 6.09919 3.75681 6.67426 3.75687C6.87432 3.75689 7.07409 3.77327 7.27185 3.80587C7.44396 3.82613 7.61765 3.78809 7.76875 3.69705C7.91984 3.60601 8.04081 3.46649 8.11482 3.29793C8.60783 2.23312 9.38597 1.35195 10.3487 0.768218C11.3115 0.184489 12.4146 -0.0749805 13.5157 0.0233198C14.6168 0.12162 15.6652 0.573175 16.5256 1.31966C17.3859 2.06615 18.0187 3.07329 18.3422 4.211C18.3993 4.41215 18.5206 4.58507 18.6847 4.69916C18.8488 4.81326 19.045 4.86118 19.2388 4.83443C19.793 4.75585 20.3564 4.80493 20.8917 4.97843C21.427 5.15192 21.9219 5.44587 22.3438 5.84082C22.7657 6.23577 23.1049 6.72271 23.3389 7.26942C23.573 7.81613 23.6965 8.41013 23.7014 9.01212H23.7047Z" fill="#A3D4F7"/>
<path d="M2.29529 15.0837C2.29529 16.4017 2.78129 17.6659 3.64646 18.5982C4.51163 19.5305 5.68516 20.0546 6.90907 20.0554H14.6225C15.8464 20.0546 17.02 19.5305 17.8851 18.5982C18.7503 17.6659 19.2363 16.4017 19.2363 15.0837V14.6562C19.2364 14.1662 19.1468 13.681 18.9727 13.2282C18.7986 12.7755 18.5433 12.3641 18.2216 12.0176C17.8998 11.6711 17.5178 11.3962 17.0974 11.2087C16.677 11.0212 16.2264 10.9248 15.7714 10.9248C15.6127 10.9241 15.4542 10.9366 15.2973 10.962C15.1612 10.9779 15.0238 10.9477 14.9044 10.8756C14.7849 10.8036 14.6892 10.6932 14.6307 10.5599C14.2405 9.7177 13.6249 9.02077 12.8632 8.55918C12.1015 8.09758 11.2288 7.89252 10.3579 7.97047C9.48688 8.04843 8.6576 8.40582 7.97714 8.99648C7.29668 9.58715 6.79629 10.384 6.5406 11.284C6.49551 11.4432 6.39954 11.58 6.26971 11.6703C6.13987 11.7605 5.98455 11.7984 5.83129 11.7771C5.70128 11.7589 5.57035 11.7494 5.43926 11.7486C4.61411 11.749 3.82225 12.0991 3.23485 12.7231C2.64745 13.3472 2.31169 14.1952 2.30016 15.0837H2.29529Z" fill="#80ACCC"/>
<path d="M9.21581 17.4492H13.5521C13.5688 17.4493 13.5852 17.454 13.5997 17.4629C13.6141 17.4717 13.6262 17.4845 13.6348 17.5C13.6433 17.5154 13.6479 17.533 13.6482 17.5509C13.6486 17.5689 13.6446 17.5866 13.6366 17.6024L11.6943 21.4397C11.6864 21.4555 11.6824 21.4732 11.6827 21.4912C11.683 21.5091 11.6877 21.5267 11.6962 21.5421C11.7047 21.5575 11.7168 21.5703 11.7313 21.5792C11.7458 21.5881 11.7622 21.5928 11.7788 21.5928H13.7402C13.7591 21.5926 13.7776 21.5985 13.7935 21.6095C13.8093 21.6206 13.8218 21.6365 13.8293 21.6551C13.8368 21.6738 13.8391 21.6944 13.8358 21.7145C13.8326 21.7345 13.8239 21.753 13.8109 21.7678L8.47806 27.9663C8.4632 27.9836 8.44333 27.9949 8.42172 27.9984C8.4001 28.0019 8.37803 27.9974 8.35912 27.9855C8.34021 27.9737 8.32559 27.9553 8.31768 27.9334C8.30976 27.9115 8.30901 27.8873 8.31556 27.8648L9.46118 23.898C9.46562 23.8825 9.46662 23.8661 9.46411 23.85C9.4616 23.834 9.45565 23.8189 9.44672 23.8058C9.4378 23.7927 9.42616 23.782 9.41273 23.7746C9.3993 23.7672 9.38445 23.7634 9.36937 23.7633H7.79109C7.77647 23.7632 7.76205 23.7597 7.74892 23.7528C7.73578 23.7459 7.72428 23.7358 7.71527 23.7234C7.70627 23.7111 7.7 23.6966 7.69695 23.6812C7.6939 23.6658 7.69414 23.6499 7.69765 23.6346L9.12237 17.5276C9.12762 17.5052 9.13966 17.4853 9.15659 17.4711C9.17352 17.4569 9.19436 17.4492 9.21581 17.4492Z" fill="#FFCF4A"/>
<path d="M6.01251 24.1259C6.01528 24.2787 5.98974 24.4305 5.93738 24.5724C5.88502 24.7144 5.80689 24.8437 5.70758 24.9528C5.60826 25.0618 5.48974 25.1485 5.35896 25.2076C5.22817 25.2668 5.08775 25.2972 4.9459 25.2972C4.80405 25.2972 4.66363 25.2668 4.53285 25.2076C4.40206 25.1485 4.28355 25.0618 4.18423 24.9528C4.08491 24.8437 4.00679 24.7144 3.95443 24.5724C3.90207 24.4305 3.87652 24.2787 3.87929 24.1259C3.87929 23.6622 4.44804 22.6909 4.75639 22.2009C4.77721 22.1674 4.8054 22.1398 4.83845 22.1208C4.87151 22.1018 4.90842 22.0918 4.9459 22.0918C4.98339 22.0918 5.02029 22.1018 5.05335 22.1208C5.08641 22.1398 5.1146 22.1674 5.13542 22.2009C5.44376 22.6909 6.01251 23.6622 6.01251 24.1259Z" fill="#B7DDEA"/>
<path d="M22.4454 18.907C22.4399 19.2078 22.3251 19.4942 22.1257 19.7049C21.9263 19.9155 21.6581 20.0335 21.3787 20.0335C21.0994 20.0335 20.8312 19.9155 20.6318 19.7049C20.4324 19.4942 20.3176 19.2078 20.3121 18.907C20.3121 18.4428 20.8809 17.472 21.1892 16.982C21.21 16.9484 21.2382 16.9209 21.2713 16.9019C21.3044 16.8829 21.3413 16.8729 21.3787 16.8729C21.4162 16.8729 21.4531 16.8829 21.4862 16.9019C21.5192 16.9209 21.5474 16.9484 21.5683 16.982C21.875 17.472 22.4454 18.4428 22.4454 18.907Z" fill="#B7DDEA"/>
<path d="M17.652 24.1259C17.6547 24.2787 17.6292 24.4305 17.5768 24.5724C17.5245 24.7144 17.4464 24.8437 17.347 24.9528C17.2477 25.0618 17.1292 25.1485 16.9984 25.2076C16.8676 25.2668 16.7272 25.2972 16.5854 25.2972C16.4435 25.2972 16.3031 25.2668 16.1723 25.2076C16.0415 25.1485 15.923 25.0618 15.8237 24.9528C15.7244 24.8437 15.6463 24.7144 15.5939 24.5724C15.5415 24.4305 15.516 24.2787 15.5188 24.1259C15.5188 23.6622 16.0875 22.6909 16.3959 22.2009C16.4167 22.1674 16.4449 22.1398 16.4779 22.1208C16.511 22.1018 16.5479 22.0918 16.5854 22.0918C16.6229 22.0918 16.6598 22.1018 16.6928 22.1208C16.7259 22.1398 16.7541 22.1674 16.7749 22.2009C17.0816 22.6909 17.652 23.6622 17.652 24.1259Z" fill="#B7DDEA"/>
</svg>
