<svg width="23" height="22" viewBox="0 0 23 22" fill="none" xmlns="http://www.w3.org/2000/svg">
<path d="M5.24222 17.1001H6.03196C6.19542 17.1001 6.32808 16.9677 6.32808 16.8039C6.32808 16.6402 6.19542 16.5078 6.03196 16.5078H5.24222L5.63724 15.8235C5.71896 15.6817 5.6704 15.5007 5.52886 15.419C5.38672 15.3373 5.20609 15.3861 5.12436 15.5274L4.72934 16.2114L4.33432 15.5274C4.25259 15.3855 4.07167 15.337 3.92983 15.419C3.78799 15.5007 3.73972 15.682 3.82145 15.8235L4.21647 16.5078H3.42643C3.26297 16.5078 3.13031 16.6402 3.13031 16.8039C3.13031 16.9677 3.26297 17.1001 3.42643 17.1001H4.21647L3.82145 17.7844C3.73972 17.9262 3.78828 18.1072 3.92983 18.1889C3.97661 18.2158 4.02754 18.2286 4.07759 18.2286C4.18004 18.2286 4.27954 18.1753 4.33432 18.0805L4.72934 17.3965L5.12436 18.0805C5.17944 18.1756 5.27864 18.2286 5.3811 18.2286C5.43114 18.2286 5.48207 18.2158 5.52886 18.1889C5.6707 18.1072 5.71896 17.9259 5.63724 17.7844L5.24222 17.1001Z" fill="#80ACCC"/>
<path d="M8.82108 20.1338H8.03134L8.42636 19.4494C8.50809 19.3076 8.45953 19.1267 8.31798 19.0449C8.17585 18.9629 7.99521 19.0121 7.91349 19.1533L7.51847 19.8374L7.12345 19.1533C7.04172 19.0115 6.86079 18.9626 6.71895 19.0449C6.57711 19.1267 6.52884 19.3079 6.61057 19.4494L7.00559 20.1338H6.21555C6.05209 20.1338 5.91943 20.2661 5.91943 20.4299C5.91943 20.5936 6.05209 20.726 6.21555 20.726H7.00559L6.61057 21.4103C6.52884 21.5522 6.57741 21.7331 6.71895 21.8148C6.76574 21.8418 6.81637 21.8545 6.86671 21.8545C6.96917 21.8545 7.06866 21.8012 7.12345 21.7064L7.51847 21.0224L7.91349 21.7064C7.96856 21.8015 8.06776 21.8545 8.17022 21.8545C8.22026 21.8545 8.2712 21.8418 8.31798 21.8148C8.45982 21.7331 8.50809 21.5519 8.42636 21.4103L8.03134 20.726H8.82108C8.98454 20.726 9.1172 20.5936 9.1172 20.4299C9.1172 20.2661 8.98484 20.1338 8.82108 20.1338Z" fill="#80ACCC"/>
<path d="M12.1684 16.5078H11.3783L11.7734 15.8235C11.8551 15.6817 11.8065 15.5007 11.665 15.419C11.5228 15.3373 11.3419 15.3861 11.2605 15.5274L10.8655 16.2114L10.4704 15.5274C10.3884 15.3855 10.2078 15.337 10.0659 15.419C9.9241 15.5007 9.87584 15.682 9.95756 15.8235L10.3526 16.5078H9.56284C9.39938 16.5078 9.26672 16.6402 9.26672 16.8039C9.26672 16.9677 9.39938 17.1001 9.56284 17.1001H10.3526L9.95756 17.7844C9.87584 17.9262 9.9244 18.1072 10.0659 18.1889C10.1127 18.2158 10.1637 18.2286 10.2137 18.2286C10.3162 18.2286 10.4157 18.1753 10.4704 18.0805L10.8655 17.3965L11.2605 18.0805C11.3156 18.1756 11.4148 18.2286 11.5172 18.2286C11.5673 18.2286 11.6182 18.2158 11.665 18.1889C11.8068 18.1072 11.8551 17.9259 11.7734 17.7844L11.3783 17.1001H12.1684C12.3318 17.1001 12.4645 16.9677 12.4645 16.8039C12.4645 16.6402 12.3318 16.5078 12.1684 16.5078Z" fill="#80ACCC"/>
<path d="M15.5154 20.1338H14.7254L15.1204 19.4494C15.2021 19.3076 15.1536 19.1267 15.012 19.0449C14.8705 18.9632 14.6893 19.0118 14.6075 19.1533L14.2128 19.8374L13.8181 19.1533C13.7364 19.0115 13.5545 18.9629 13.4136 19.0449C13.2718 19.1267 13.2232 19.3079 13.3052 19.4494L13.7002 20.1338H12.9102C12.7464 20.1338 12.6141 20.2661 12.6141 20.4299C12.6141 20.5936 12.7464 20.726 12.9102 20.726H13.7002L13.3049 21.4103C13.2232 21.5522 13.2717 21.7331 13.4133 21.8148C13.4598 21.8418 13.5107 21.8545 13.5611 21.8545C13.6635 21.8545 13.763 21.8012 13.8178 21.7064L14.2125 21.0224L14.6072 21.7064C14.6623 21.8015 14.7615 21.8545 14.864 21.8545C14.9143 21.8545 14.9652 21.8418 15.0117 21.8148C15.1536 21.7331 15.2021 21.5519 15.1201 21.4103L14.7251 20.726H15.5151C15.6789 20.726 15.8112 20.5936 15.8112 20.4299C15.8112 20.2661 15.6792 20.1338 15.5154 20.1338Z" fill="#80ACCC"/>
<path d="M18.3045 16.5078H17.5147L17.9098 15.8235C17.9915 15.6817 17.9429 15.5007 17.8014 15.419C17.6598 15.3376 17.4786 15.3853 17.3969 15.5274L17.0019 16.2114L16.6068 15.5274C16.5248 15.3853 16.3433 15.3373 16.2023 15.419C16.0605 15.5007 16.0119 15.682 16.094 15.8235L16.489 16.5078H15.6989C15.5352 16.5078 15.4028 16.6402 15.4028 16.804C15.4028 16.9677 15.5352 17.1001 15.6989 17.1001H16.489L16.094 17.7844C16.0122 17.9262 16.0608 18.1072 16.2023 18.1889C16.2488 18.2158 16.2998 18.2286 16.3501 18.2286C16.4526 18.2286 16.5521 18.1756 16.6068 18.0805L17.0019 17.3965L17.3969 18.0805C17.452 18.1756 17.5512 18.2286 17.6536 18.2286C17.704 18.2286 17.7549 18.2158 17.8014 18.1889C17.9432 18.1072 17.9918 17.9259 17.9098 17.7844L17.5147 17.1001H18.3045C18.4682 17.1001 18.6006 16.9677 18.6006 16.804C18.6006 16.6402 18.4682 16.5078 18.3045 16.5078Z" fill="#80ACCC"/>
<path d="M2.9373 7.08656C2.9293 6.96485 2.92367 6.84256 2.92367 6.71878C2.92367 3.70372 5.36782 1.25957 8.38289 1.25957C10.5641 1.25957 12.4459 2.53909 13.3203 4.38834C13.9789 3.92077 14.7817 3.64331 15.6508 3.64331C17.6617 3.64331 19.3241 5.11649 19.6297 7.04125C21.0143 7.42028 22.0333 8.68381 22.0333 10.1887C22.0333 11.9926 20.5708 13.4551 18.7668 13.4551H3.95653C2.15259 13.4551 0.690063 11.9926 0.690063 10.1887C0.690063 8.74067 1.6329 7.51504 2.9373 7.08656Z" fill="#A3D4F7"/>
</svg>
