<svg width="24" height="24" viewBox="0 0 24 24" fill="none" xmlns="http://www.w3.org/2000/svg">
<g clip-path="url(#clip0_1_747)">
<path d="M20.3306 9.76271C20.3306 13.1325 17.5988 15.8644 14.229 15.8644C10.8589 15.8644 8.12726 13.1325 8.12726 9.76271C8.12726 6.39288 10.8589 3.66102 14.229 3.66102C17.5988 3.66102 20.3306 6.39288 20.3306 9.76271Z" fill="#FDD020"/>
<path d="M14.2289 2.44068C14.0041 2.44068 13.8221 2.25854 13.8221 2.0339V0.40678C13.8221 0.182137 14.0041 0 14.2289 0C14.4536 0 14.6357 0.182137 14.6357 0.40678V2.0339C14.6357 2.25854 14.4536 2.44068 14.2289 2.44068Z" fill="#FDD020"/>
<path d="M23.5849 10.1695H21.9578C21.733 10.1695 21.551 9.98736 21.551 9.76271C21.551 9.53807 21.733 9.35593 21.9578 9.35593H23.5849C23.8096 9.35593 23.9917 9.53807 23.9917 9.76271C23.9917 9.98736 23.8096 10.1695 23.5849 10.1695Z" fill="#FDD020"/>
<path d="M19.1103 15.0508C18.8128 15.0508 18.5158 15.0806 18.2243 15.1394C18.0044 14.042 17.2935 13.1059 16.2954 12.5992C15.2975 12.0926 14.1223 12.0713 13.1065 12.5414C12.1873 10.0094 9.38951 8.70207 6.85746 9.62129C4.32542 10.5407 3.01808 13.3385 3.93731 15.8706C1.71928 15.9407 -0.0327677 17.7764 0.00040226 19.9954C0.0337709 22.2142 1.84025 23.9964 4.05946 24H19.1103C21.5814 24 23.5849 21.9967 23.5849 19.5254C23.5849 17.0542 21.5814 15.0508 19.1103 15.0508Z" fill="#A3D4F7"/>
<path d="M8.53404 4.0678L6.90692 2.44068Z" fill="#FDD020"/>
<path d="M8.53404 4.47458C8.42599 4.47458 8.32271 4.43168 8.24644 4.3554L6.61932 2.72829C6.51345 2.62619 6.47115 2.47484 6.50829 2.33263C6.54563 2.19041 6.65666 2.07938 6.79887 2.04224C6.94109 2.0049 7.09224 2.04741 7.19453 2.15307L8.82165 3.78019C8.93784 3.89659 8.9726 4.07157 8.90964 4.22352C8.84668 4.37547 8.6985 4.47458 8.53404 4.47458Z" fill="#FDD020"/>
<path d="M19.9238 4.0678L21.5509 2.44068Z" fill="#FDD020"/>
<path d="M19.9239 4.47458C19.7592 4.47458 19.611 4.37547 19.5481 4.22352C19.4851 4.07157 19.5199 3.89659 19.6363 3.78019L21.2634 2.15307C21.3655 2.04741 21.5166 2.0049 21.6588 2.04224C21.8011 2.07938 21.9123 2.19041 21.9494 2.33263C21.9866 2.47484 21.9443 2.62619 21.8386 2.72829L20.2115 4.3554C20.1352 4.43168 20.0317 4.47458 19.9239 4.47458Z" fill="#FDD020"/>
</g>
<defs>
<clipPath id="clip0_1_747">
<rect width="24" height="24" fill="white"/>
</clipPath>
</defs>
</svg>
